# Blender v2.79 (sub 0) OBJ File: 'small_rock.blend'
# www.blender.org
mtllib medium_rock_snow.mtl
o Cube
v 0.170716 0.961364 -0.141900
v -0.073449 0.924397 0.058947
v -0.264760 0.085155 0.438544
v -0.343590 0.422085 0.408683
v -0.315453 0.682001 0.323494
v 0.451350 0.079438 0.253891
v 0.416520 0.352830 0.359260
v 0.415389 0.423137 0.259619
v 0.264873 0.077567 -0.452041
v 0.369701 0.408232 -0.379376
v 0.295515 0.485832 -0.364922
v -0.423281 0.066512 -0.298592
v -0.408654 0.459302 -0.290228
v -0.382589 0.509577 0.264320
v -0.402163 0.489329 -0.150049
v -0.448901 0.414981 -0.024393
v -0.425822 0.072623 0.296132
v 0.394804 0.579505 -0.247245
v 0.417722 0.477924 -0.191633
v 0.275917 0.797801 0.035617
v 0.389764 0.200463 -0.285022
v 0.413127 0.083224 -0.317640
v 0.474001 0.077341 -0.174349
v 0.473441 0.078049 0.118223
v -0.077982 0.969223 -0.135939
v -0.246511 0.777227 0.180121
v -0.190957 0.946222 -0.068208
v 0.195561 0.957784 -0.017943
v 0.029480 1.001330 -0.096992
v -0.349538 0.570881 -0.330567
v -0.339912 0.386721 -0.383423
v 0.019499 0.434196 -0.452274
v 0.106934 0.423459 -0.451210
v -0.268665 0.079151 -0.438818
v -0.182887 0.074055 -0.468891
v 0.126894 0.078592 -0.474606
v 0.047541 0.706225 0.289909
v -0.213917 0.463516 0.425087
v 0.312908 0.413966 0.430156
v -0.220588 0.382937 0.466371
v 0.323682 0.094024 0.408691
v 0.212845 0.086239 0.464747
v -0.104080 0.089870 0.468950
v -0.004626 0.892763 0.089192
v -0.002179 0.873080 0.151156
v -0.112768 0.753169 0.286518
v -0.103221 0.891151 -0.239853
v -0.364763 0.007266 0.366398
v -0.362670 0.005501 -0.373348
v 0.373200 0.009774 -0.360669
v 0.359625 0.013347 0.372380
v -0.350017 0.073273 -0.383911
v -0.283428 0.747614 0.279018
v -0.301244 0.803853 -0.285926
v -0.464704 0.001341 -0.220442
v -0.481720 0.000186 -0.019885
v -0.460142 0.001420 0.225592
v 0.464282 0.009565 0.221036
v 0.480254 0.006852 0.020796
v 0.460657 0.008081 -0.222748
v -0.314214 0.745284 0.210970
v -0.466329 0.057713 0.203295
v -0.461618 0.058700 -0.221931
v 0.422750 0.184999 -0.207955
v 0.416410 0.198891 0.205476
v 0.224461 0.008734 -0.464374
v 0.026426 0.007310 -0.481000
v -0.215341 0.007542 -0.461547
v 0.007081 0.982095 -0.137398
v -0.213365 0.011960 0.460086
v -0.018637 0.012594 0.479172
v 0.226094 0.012609 0.459059
v -0.083781 0.854775 0.179024
v -0.168011 0.136605 -0.441895
v 0.230195 0.184512 -0.420040
v 0.024525 0.178218 0.433279
v 0.144193 0.674712 0.310870
v 0.280545 0.767015 0.180113
v 0.197653 0.952169 -0.127554
v 0.352729 0.587789 -0.320236
v 0.340950 0.464618 0.346641
v -0.152678 0.963367 0.004277
v 0.437607 0.164131 0.002110
v -0.471741 0.059571 -0.112459
v -0.302148 0.831877 -0.113468
v 0.231436 0.411786 0.456369
v -0.187117 0.405950 -0.389151
v -0.129310 0.816776 -0.305403
v 0.015719 0.840433 -0.267344
v -0.088110 0.974550 -0.022124
v 0.025553 0.995554 0.008372
v 0.144479 0.988101 0.005231
v 0.188302 0.859465 0.095176
vt 0.340442 0.660639
vt 0.304158 0.572453
vt 0.368707 0.551256
vt 0.599578 0.593650
vt 0.696725 0.766738
vt 0.580345 0.611333
vt 0.686810 0.460839
vt 0.589858 0.423639
vt 0.631238 0.376848
vt 0.364078 0.390135
vt 0.347798 0.332989
vt 0.447373 0.365765
vt 0.430375 0.433315
vt 0.395537 0.494213
vt 0.246740 0.082123
vt 0.280380 0.203897
vt 0.105828 0.200825
vt 0.124362 0.144361
vt 0.262882 0.037155
vt 0.370894 0.226527
vt 0.311000 0.286881
vt 0.931721 0.257054
vt 0.875726 0.317860
vt 0.826303 0.226534
vt 0.810317 0.107700
vt 0.850896 0.119802
vt 0.963111 0.263355
vt 0.777040 0.338140
vt 0.752049 0.931513
vt 0.703414 0.885806
vt 0.795615 0.817119
vt 0.897026 0.805123
vt 0.879371 0.851756
vt 0.736682 0.963090
vt 0.094320 0.792712
vt 0.036471 0.735903
vt 0.054836 0.716881
vt 0.146247 0.877450
vt 0.239451 0.692289
vt 0.295068 0.714144
vt 0.149733 0.853093
vt 0.240612 0.608006
vt 0.259609 0.340754
vt 0.319388 0.368793
vt 0.053482 0.293502
vt 0.044184 0.612941
vt 0.181057 0.522512
vt 0.030076 0.283166
vt 0.016964 0.527177
vt 0.762982 0.691773
vt 0.791071 0.642537
vt 0.884028 0.471192
vt 0.852895 0.755958
vt 0.733584 0.731234
vt 0.886542 0.688737
vt 0.949053 0.679358
vt 0.970249 0.714451
vt 0.983036 0.471055
vt 0.958180 0.385788
vt 0.442462 0.517159
vt 0.437535 0.601933
vt 0.604501 0.510183
vt 0.556599 0.499735
vt 0.495931 0.426792
vt 0.524081 0.587794
vt 0.510563 0.622912
vt 0.418623 0.701691
vt 0.363420 0.794509
vt 0.287597 0.801774
vt 0.506386 0.696397
vt 0.499141 0.817406
vt 0.584418 0.812110
vt 0.215688 0.905242
vt 0.333822 0.914408
vt 0.286973 0.970443
vt 0.615577 0.957493
vt 0.320610 0.948732
vt 0.528813 0.983036
vt 0.725753 0.209881
vt 0.724147 0.284946
vt 0.615253 0.278803
vt 0.670135 0.188037
vt 0.514609 0.279241
vt 0.431656 0.307911
vt 0.340239 0.149169
vt 0.713321 0.029597
vt 0.710172 0.055496
vt 0.529440 0.100746
vt 0.399452 0.046393
vt 0.469132 0.016964
vt 0.502496 0.374272
vt 0.519574 0.498502
vt 0.434703 0.655460
vn -0.6876 0.7161 -0.1200
vn 0.5345 0.4698 -0.7026
vn 0.6325 0.7615 0.1420
vn -0.4270 0.8976 0.1094
vn 0.0745 0.8599 0.5050
vn -0.6561 -0.0871 0.7497
vn -0.5200 -0.1161 0.8462
vn 0.1906 0.4854 0.8533
vn 0.9592 0.1994 -0.2003
vn 0.7559 -0.1494 0.6375
vn 0.8156 -0.1156 0.5669
vn 1.0000 0.0062 -0.0070
vn -0.1191 0.2490 -0.9612
vn 0.6718 -0.0506 -0.7390
vn 0.5628 -0.1861 -0.8054
vn -0.0028 0.1805 -0.9836
vn -0.8953 0.0367 -0.4440
vn -0.8219 -0.1398 -0.5522
vn -0.8953 0.0428 -0.4434
vn -0.6611 0.0806 -0.7459
vn -0.7596 0.0421 -0.6490
vn -0.9544 0.2978 -0.0196
vn -0.8328 0.2657 -0.4856
vn -0.8624 0.3359 0.3787
vn -0.9580 0.2850 0.0313
vn -0.9388 0.1165 0.3242
vn -0.9169 0.1185 0.3811
vn -0.9919 0.0866 -0.0924
vn -0.8141 -0.1605 0.5581
vn -0.9981 0.0598 0.0175
vn -0.9934 -0.0744 0.0877
vn -0.9958 0.0360 -0.0843
vn 0.9396 0.3010 0.1626
vn 0.9524 0.2521 -0.1714
vn 0.8676 0.0379 -0.4958
vn 0.9209 0.0265 -0.3888
vn 0.6246 0.0541 -0.7791
vn 0.9808 0.1435 0.1317
vn 0.9940 -0.0214 0.1073
vn 0.8806 0.3064 -0.3615
vn 0.8351 -0.1427 -0.5313
vn 0.9877 -0.1343 -0.0802
vn 0.9314 0.3325 0.1483
vn 0.9967 -0.0137 0.0797
vn -0.1953 0.9787 -0.0632
vn -0.2526 0.9630 -0.0944
vn 0.8829 0.4694 -0.0072
vn 0.8902 0.4549 0.0231
vn -0.7487 0.6138 0.2502
vn -0.3264 0.9162 0.2324
vn 0.5966 0.5864 0.5479
vn 0.1737 0.8512 0.4952
vn 0.2909 0.9545 0.0655
vn 0.2729 0.9610 -0.0440
vn -0.1457 0.9222 -0.3583
vn -0.1257 0.2118 -0.9692
vn -0.0702 0.2718 -0.9598
vn 0.1684 0.4097 -0.8965
vn 0.0619 0.4140 -0.9082
vn 0.2512 0.4360 -0.8642
vn -0.5603 0.0194 -0.8281
vn -0.1157 0.1500 -0.9819
vn 0.3919 0.0826 -0.9163
vn -0.5580 -0.0251 -0.8295
vn -0.5095 -0.1085 -0.8536
vn -0.0228 0.4007 -0.9159
vn -0.0801 -0.0707 -0.9943
vn 0.0206 0.0689 -0.9974
vn 0.1615 0.0761 -0.9839
vn 0.0838 -0.0288 -0.9961
vn 0.7445 0.4300 0.5108
vn 0.3398 0.5641 0.7525
vn -0.0359 0.4747 0.8794
vn 0.0983 0.4013 0.9106
vn 0.0399 0.4530 0.8906
vn 0.5401 -0.1333 0.8309
vn 0.0165 0.3537 0.9352
vn 0.0818 -0.0621 0.9947
vn -0.1837 -0.0644 0.9809
vn -0.0976 0.0237 0.9949
vn 0.2443 0.7121 0.6582
vn 0.1671 0.8466 0.5053
vn 0.0458 0.6467 0.7613
vn 0.1778 0.6600 0.7299
vn 0.0775 0.7140 0.6958
vn -0.2268 0.8043 -0.5492
vn -0.1328 0.6811 -0.7200
vn -0.1321 0.8076 -0.5747
vn 0.0961 0.6390 -0.7632
vn 0.3051 0.4688 -0.8289
vn -0.0821 0.4384 -0.8950
vn -0.0537 0.7329 0.6783
vn -0.6602 0.1699 0.7317
vn -0.4299 -0.0206 0.9026
vn -0.2540 0.4576 0.8521
vn -0.2203 0.3253 0.9196
vn -0.0538 0.4462 0.8933
vn 0.7729 0.0600 0.6317
vn 0.7467 0.5474 0.3778
vn 0.9258 0.3746 0.0502
vn 0.7797 0.4143 0.4695
vn 0.6685 0.0703 -0.7404
vn 0.1551 0.3222 -0.9339
vn -0.7596 0.0407 -0.6491
vn -0.9908 0.1339 0.0172
vn -0.9572 0.2849 -0.0513
vn -0.9175 0.3877 -0.0887
vn -0.9603 0.2763 0.0380
vn -0.8367 0.5475 0.0128
vn -0.8995 0.2209 0.3769
vn -0.9725 0.1570 0.1719
vn -0.9522 0.1734 -0.2515
vn -0.9184 0.0543 0.3920
vn -0.9811 0.1928 0.0180
vn -0.9944 0.0511 -0.0924
vn 0.9368 0.2249 0.2680
vn 0.9955 0.0949 -0.0026
vn 0.9446 0.0344 -0.3264
vn 0.9781 0.1567 0.1372
vn 0.9031 0.2723 -0.3319
vn 0.9178 0.0930 -0.3861
vn 0.9228 0.3853 0.0008
vn 0.9957 0.0930 0.0017
vn 0.9108 0.4122 0.0245
vn 0.9815 0.1070 0.1587
vn -0.3879 0.8490 -0.3587
vn 0.0634 0.8538 0.5167
vn 0.7618 0.5249 -0.3796
vn 0.6994 0.5166 0.4939
vn -0.3712 0.9185 0.1365
vn -0.3442 0.7306 0.5897
vn -0.7417 0.6199 0.2560
vn 0.0580 0.5853 0.8088
vn -0.3071 0.6423 0.7022
vn 0.3768 0.8725 -0.3110
vn 0.0981 0.8764 -0.4716
vn 0.0639 0.9963 0.0570
vn -0.2628 0.9624 -0.0684
vn -0.1936 0.9800 0.0465
vn -0.1301 0.2156 -0.9678
vn -0.3131 0.2318 -0.9210
vn -0.9584 0.0313 -0.2837
vn -0.0604 0.1877 -0.9804
vn -0.3085 0.1617 -0.9374
vn -0.2747 0.4353 -0.8573
vn -0.3274 0.0556 -0.9433
vn -0.1042 0.0310 -0.9941
vn -0.0200 0.1173 -0.9929
vn 0.8427 0.3857 -0.3757
vn 0.1615 0.0814 -0.9835
vn 0.2467 0.5306 0.8109
vn 0.6699 0.5134 0.5363
vn 0.3061 0.0070 0.9520
vn -0.3890 0.2572 0.8846
vn 0.3203 0.2352 0.9176
vn 0.5491 -0.0375 0.8349
vn 0.4534 -0.0445 0.8902
vn 0.4506 0.0121 0.8926
vn -0.1486 0.0339 0.9883
vn 0.0148 0.1472 0.9890
vn 0.2076 0.0911 0.9740
vn -0.1881 0.1534 0.9701
vn -0.9059 0.3920 0.1603
vn -0.1082 0.9462 0.3048
vn 0.1328 0.7392 0.6603
vn 0.2445 0.7111 0.6591
vn 0.1196 0.6751 -0.7280
vn 0.0656 0.6767 -0.7333
vn 0.0071 -1.0000 0.0044
usemtl stone_rock
s off
f 54/1/1 85/2/1 27/3/1
f 79/4/2 11/5/2 1/6/2
f 20/7/3 93/8/3 78/9/3
f 26/10/4 53/11/4 73/12/4
f 2/13/5 82/14/5 73/12/5
f 3/15/6 4/16/6 17/17/6
f 3/15/7 48/18/7 70/19/7
f 38/20/8 53/11/8 5/21/8
f 6/22/9 65/23/9 7/24/9
f 7/24/10 41/25/10 6/22/10
f 6/22/11 51/26/11 58/27/11
f 65/23/12 8/28/12 7/24/12
f 9/29/13 75/30/13 10/31/13
f 10/31/14 22/32/14 9/29/14
f 9/29/15 50/33/15 66/34/15
f 75/30/16 11/5/16 10/31/16
f 12/35/17 55/36/17 63/37/17
f 12/35/18 49/38/18 55/36/18
f 12/35/19 63/37/19 13/39/19
f 13/39/20 30/40/20 52/41/20
f 13/39/21 52/41/21 12/35/21
f 15/42/22 54/1/22 13/39/22
f 13/39/23 54/1/23 30/40/23
f 14/43/24 53/11/24 61/44/24
f 61/44/25 15/42/25 14/43/25
f 4/16/26 14/43/26 17/17/26
f 17/17/27 14/43/27 62/45/27
f 63/37/28 84/46/28 16/47/28
f 17/17/29 57/48/29 48/18/29
f 16/47/30 84/46/30 62/45/30
f 62/45/31 56/49/31 57/48/31
f 84/46/32 55/36/32 56/49/32
f 18/50/33 20/7/33 19/51/33
f 8/28/34 83/52/34 20/7/34
f 21/53/35 80/54/35 18/50/35
f 18/50/36 64/55/36 21/53/36
f 23/56/37 64/55/37 19/51/37
f 19/51/38 83/52/38 23/56/38
f 65/23/39 83/52/39 8/28/39
f 22/32/40 64/55/40 23/56/40
f 22/32/41 60/57/41 50/33/41
f 23/56/42 59/58/42 60/57/42
f 24/59/43 65/23/43 6/22/43
f 24/59/44 58/27/44 59/58/44
f 82/14/45 90/60/45 25/61/45
f 25/61/46 27/3/46 82/14/46
f 79/4/47 28/62/47 18/50/47
f 28/62/48 20/7/48 18/50/48
f 82/14/49 27/3/49 26/10/49
f 26/10/50 85/2/50 61/44/50
f 28/62/51 92/63/51 93/8/51
f 44/64/52 90/60/52 2/13/52
f 79/4/53 1/6/53 29/65/53
f 29/65/54 28/62/54 79/4/54
f 69/66/55 25/61/55 29/65/55
f 54/1/56 88/67/56 30/40/56
f 30/40/57 87/68/57 31/69/57
f 88/67/58 89/70/58 32/71/58
f 32/71/59 89/70/59 33/72/59
f 33/72/60 89/70/60 11/5/60
f 34/73/61 52/41/61 31/69/61
f 31/69/62 74/74/62 34/73/62
f 33/72/63 11/5/63 75/30/63
f 34/73/64 49/38/64 52/41/64
f 34/73/65 68/75/65 49/38/65
f 74/74/66 36/76/66 35/77/66
f 35/77/67 67/78/67 68/75/67
f 36/76/68 32/71/68 33/72/68
f 33/72/69 9/29/69 36/76/69
f 36/76/70 66/34/70 67/78/70
f 39/79/71 81/80/71 78/9/71
f 78/9/72 77/81/72 39/79/72
f 86/82/73 77/81/73 37/83/73
f 37/83/74 46/84/74 38/20/74
f 40/85/75 37/83/75 38/20/75
f 41/25/76 72/86/76 51/26/76
f 42/87/77 76/88/77 43/89/77
f 42/87/78 71/90/78 72/86/78
f 43/89/79 40/85/79 3/15/79
f 43/89/80 70/19/80 71/90/80
f 45/91/81 93/8/81 91/92/81
f 2/13/82 73/12/82 44/64/82
f 37/83/83 77/81/83 45/91/83
f 46/84/84 37/83/84 45/91/84
f 45/91/85 73/12/85 46/84/85
f 47/93/86 54/1/86 25/61/86
f 47/93/87 88/67/87 54/1/87
f 47/93/88 25/61/88 69/66/88
f 47/93/89 89/70/89 88/67/89
f 1/6/90 11/5/90 89/70/90
f 79/4/91 80/54/91 11/5/91
f 73/12/92 53/11/92 46/84/92
f 3/15/93 17/17/93 48/18/93
f 4/16/94 3/15/94 40/85/94
f 40/85/95 38/20/95 4/16/95
f 5/21/96 4/16/96 38/20/96
f 38/20/97 46/84/97 53/11/97
f 6/22/98 41/25/98 51/26/98
f 8/28/99 81/80/99 7/24/99
f 8/28/100 20/7/100 78/9/100
f 8/28/101 78/9/101 81/80/101
f 9/29/102 22/32/102 50/33/102
f 11/5/103 80/54/103 10/31/103
f 12/35/104 52/41/104 49/38/104
f 63/37/105 15/42/105 13/39/105
f 15/42/106 85/2/106 54/1/106
f 14/43/107 5/21/107 53/11/107
f 61/44/108 85/2/108 15/42/108
f 14/43/109 15/42/109 16/47/109
f 4/16/110 5/21/110 14/43/110
f 16/47/111 62/45/111 14/43/111
f 16/47/112 15/42/112 63/37/112
f 17/17/113 62/45/113 57/48/113
f 62/45/114 84/46/114 56/49/114
f 84/46/115 63/37/115 55/36/115
f 19/51/116 20/7/116 83/52/116
f 21/53/117 10/31/117 80/54/117
f 18/50/118 19/51/118 64/55/118
f 22/32/119 10/31/119 21/53/119
f 22/32/120 21/53/120 64/55/120
f 22/32/121 23/56/121 60/57/121
f 23/56/122 83/52/122 24/59/122
f 23/56/123 24/59/123 59/58/123
f 24/59/124 83/52/124 65/23/124
f 24/59/125 6/22/125 58/27/125
f 25/61/126 54/1/126 27/3/126
f 2/13/127 90/60/127 82/14/127
f 18/50/128 80/54/128 79/4/128
f 20/7/129 28/62/129 93/8/129
f 61/44/130 53/11/130 26/10/130
f 73/12/131 82/14/131 26/10/131
f 26/10/132 27/3/132 85/2/132
f 91/92/133 93/8/133 92/63/133
f 44/64/134 91/92/134 90/60/134
f 29/65/135 92/63/135 28/62/135
f 29/65/136 1/6/136 69/66/136
f 91/92/137 92/63/137 29/65/137
f 29/65/138 25/61/138 90/60/138
f 90/60/139 91/92/139 29/65/139
f 30/40/140 88/67/140 87/68/140
f 32/71/141 87/68/141 88/67/141
f 31/69/142 52/41/142 30/40/142
f 31/69/143 87/68/143 74/74/143
f 32/71/144 74/74/144 87/68/144
f 34/73/145 74/74/145 35/77/145
f 34/73/146 35/77/146 68/75/146
f 74/74/147 32/71/147 36/76/147
f 35/77/148 36/76/148 67/78/148
f 33/72/149 75/30/149 9/29/149
f 36/76/150 9/29/150 66/34/150
f 39/79/151 77/81/151 86/82/151
f 39/79/152 7/24/152 81/80/152
f 39/79/153 86/82/153 42/87/153
f 86/82/154 37/83/154 76/88/154
f 40/85/155 76/88/155 37/83/155
f 41/25/156 7/24/156 39/79/156
f 41/25/157 39/79/157 42/87/157
f 41/25/158 42/87/158 72/86/158
f 42/87/159 86/82/159 76/88/159
f 42/87/160 43/89/160 71/90/160
f 43/89/161 76/88/161 40/85/161
f 43/89/162 3/15/162 70/19/162
f 45/91/163 91/92/163 44/64/163
f 44/64/164 73/12/164 45/91/164
f 78/9/165 93/8/165 77/81/165
f 45/91/166 77/81/166 93/8/166
f 47/93/167 69/66/167 89/70/167
f 89/70/168 69/66/168 1/6/168
f 57/48/169 56/49/169 55/36/169 49/38/169 68/75/169 67/78/169 66/34/169 50/33/169 60/57/169 59/58/169 58/27/169 51/26/169 72/86/169 71/90/169 70/19/169 48/18/169
