# Blender v2.79 (sub 0) OBJ File: 'big_rock_dirt.blend'
# www.blender.org
mtllib big_snow_stone.mtl
o Cube
v 0.184695 1.130856 -0.286776
v -0.103782 1.233907 0.060580
v -0.264760 0.046746 0.438544
v -0.281698 0.500865 0.351236
v -0.270280 1.030128 0.307333
v 0.451350 0.041029 0.253891
v 0.380205 0.491932 0.308354
v 0.362681 0.702303 0.290264
v 0.264873 0.039159 -0.452041
v 0.376808 0.460712 -0.432304
v 0.300654 0.540641 -0.418995
v -0.423281 0.028103 -0.298592
v -0.405451 0.606608 -0.224930
v -0.315536 1.002122 0.239190
v -0.421456 0.659181 -0.101948
v -0.476002 0.457751 -0.035571
v -0.425822 0.034215 0.296132
v 0.402576 0.556971 -0.298488
v 0.426102 0.535934 -0.240987
v 0.289250 1.000335 0.068015
v 0.455749 0.431538 -0.348098
v 0.413127 0.044816 -0.317640
v 0.474001 0.038933 -0.174349
v 0.473441 0.039640 0.118223
v -0.104267 0.956483 -0.212446
v -0.244562 1.166870 0.155812
v -0.292410 0.999030 -0.145171
v 0.230788 1.348405 -0.093004
v 0.066169 1.218869 -0.218269
v -0.344768 0.630072 -0.271981
v -0.334886 0.304185 -0.406023
v 0.017317 0.543960 -0.481308
v 0.107071 0.532961 -0.480005
v -0.268665 0.040743 -0.438818
v -0.182887 0.035646 -0.468891
v 0.126894 0.040184 -0.474606
v 0.038325 1.245431 0.265082
v -0.183337 1.000734 0.381281
v 0.273764 0.721279 0.437224
v -0.189125 0.479761 0.401289
v 0.323682 0.094024 0.408691
v 0.212845 0.047831 0.464747
v -0.104080 0.051461 0.468950
v 0.002893 1.411771 0.097433
v 0.007433 1.396681 0.217105
v -0.101543 1.145528 0.252152
v -0.115328 0.989661 -0.286241
v -0.364763 -0.011849 0.366398
v -0.362670 -0.013613 -0.373348
v 0.373200 -0.009340 -0.360669
v 0.359625 -0.005767 0.372380
v -0.350017 0.034864 -0.383911
v -0.241384 1.126722 0.248735
v -0.309986 0.897439 -0.280235
v -0.464704 -0.017773 -0.220442
v -0.481720 -0.018928 -0.019885
v -0.460142 -0.017694 0.225592
v 0.464282 -0.009549 0.221036
v 0.480254 -0.012263 0.020796
v 0.460657 -0.011033 -0.222748
v -0.269162 1.113533 0.188730
v -0.466329 0.019305 0.203295
v -0.461618 0.020291 -0.221931
v 0.422750 0.300224 -0.207955
v 0.487274 0.572556 0.229616
v 0.224461 -0.010380 -0.464374
v 0.026426 -0.011804 -0.481000
v -0.215341 -0.011572 -0.461547
v 0.056994 1.109068 -0.238783
v -0.213365 -0.007154 0.460086
v -0.018637 -0.006520 0.479172
v 0.226094 -0.006505 0.459059
v -0.113923 1.177527 0.200006
v -0.168011 0.136605 -0.441895
v 0.266961 0.409609 -0.507448
v 0.024525 0.554621 0.433279
v 0.098565 1.250439 0.230095
v 0.225076 1.081490 0.209842
v 0.234670 1.118899 -0.257512
v 0.359385 0.564037 -0.373564
v 0.298094 0.902468 0.330172
v -0.228662 1.171613 -0.014633
v 0.437607 0.279356 0.002110
v -0.471741 0.021162 -0.112459
v -0.321592 0.973579 -0.114852
v 0.203074 0.723538 0.459934
v -0.194779 0.339023 -0.412571
v -0.143178 0.921710 -0.306408
v 0.009725 1.087996 -0.366365
v -0.121133 1.181964 -0.061246
v 0.058884 1.426164 -0.057683
v 0.136018 1.411510 -0.060910
v 0.217322 1.353027 0.119541
vt 0.250304 0.744104
vt 0.240772 0.598514
vt 0.325290 0.565686
vt 0.632827 0.640193
vt 0.751822 0.832860
vt 0.603668 0.655722
vt 0.742456 0.446965
vt 0.622705 0.399088
vt 0.689750 0.319507
vt 0.284544 0.335487
vt 0.265924 0.248777
vt 0.429432 0.325455
vt 0.413647 0.405927
vt 0.362485 0.495253
vt 0.243210 0.073282
vt 0.226752 0.158118
vt 0.086709 0.211662
vt 0.146039 0.143386
vt 0.293150 0.052351
vt 0.322328 0.144289
vt 0.237846 0.209781
vt 0.939044 0.252707
vt 0.905093 0.299752
vt 0.869913 0.199786
vt 0.814990 0.102290
vt 0.849916 0.137573
vt 0.951610 0.284632
vt 0.852885 0.283792
vt 0.757847 0.938650
vt 0.724150 0.907556
vt 0.814367 0.845046
vt 0.901902 0.808055
vt 0.863107 0.849866
vt 0.718580 0.950635
vt 0.089178 0.789546
vt 0.048928 0.713609
vt 0.051927 0.715056
vt 0.148073 0.862186
vt 0.171898 0.747359
vt 0.221737 0.781368
vt 0.160368 0.872450
vt 0.158753 0.639760
vt 0.193873 0.279828
vt 0.238933 0.308440
vt 0.047349 0.301870
vt 0.042091 0.608684
vt 0.113954 0.519316
vt 0.053361 0.280205
vt 0.032394 0.518731
vt 0.835531 0.733649
vt 0.854853 0.686763
vt 0.925690 0.497359
vt 0.879201 0.776361
vt 0.800058 0.795186
vt 0.911253 0.701476
vt 0.961053 0.668822
vt 0.948087 0.715850
vt 0.967129 0.479202
vt 0.960509 0.384534
vt 0.425226 0.520907
vt 0.435066 0.631499
vt 0.630562 0.521539
vt 0.575266 0.496454
vt 0.497592 0.405565
vt 0.534511 0.607109
vt 0.510265 0.650849
vt 0.387303 0.761180
vt 0.344923 0.830758
vt 0.229853 0.825930
vt 0.506631 0.756566
vt 0.519118 0.883977
vt 0.592832 0.883079
vt 0.239416 0.925802
vt 0.337220 0.928792
vt 0.291231 0.947887
vt 0.623774 0.960577
vt 0.322765 0.955023
vt 0.526151 0.966790
vt 0.766486 0.140015
vt 0.790127 0.210425
vt 0.596248 0.244814
vt 0.697798 0.117916
vt 0.537714 0.212262
vt 0.401805 0.242201
vt 0.316704 0.109483
vt 0.720165 0.053348
vt 0.707292 0.047822
vt 0.524304 0.078399
vt 0.399341 0.043738
vt 0.482364 0.033805
vt 0.500241 0.338490
vt 0.530261 0.493053
vt 0.410176 0.703708
vn -0.7856 0.5393 -0.3034
vn 0.5342 0.2834 -0.7965
vn 0.9297 0.1398 0.3407
vn -0.2064 0.8956 0.3940
vn -0.5570 0.7832 0.2762
vn -0.6629 0.1174 0.7394
vn -0.5163 -0.1557 0.8421
vn -0.4192 0.5593 0.7152
vn 0.5941 -0.0034 0.8044
vn 0.7785 0.0472 0.6259
vn 0.8101 -0.1594 0.5642
vn 0.5301 0.1164 0.8399
vn 0.5984 -0.1218 -0.7919
vn 0.6677 -0.1431 -0.7305
vn 0.5543 -0.2549 -0.7924
vn 0.3434 0.4632 -0.8170
vn -0.8953 0.0553 -0.4421
vn -0.8126 -0.1992 -0.5477
vn -0.8947 0.0835 -0.4389
vn -0.6410 0.1473 -0.7533
vn -0.7586 0.1053 -0.6430
vn -0.9360 0.2627 -0.2341
vn -0.6255 0.0573 -0.7781
vn -0.8339 0.4747 0.2817
vn -0.9317 0.3565 -0.0691
vn -0.6673 0.1193 0.7352
vn -0.9165 0.1268 0.3795
vn -0.9957 0.0065 -0.0921
vn -0.8032 -0.2208 0.5533
vn -0.9998 -0.0128 0.0171
vn -0.9898 -0.1127 0.0876
vn -0.9950 0.0535 -0.0841
vn 0.8885 0.4051 -0.2153
vn 0.9775 0.2055 -0.0474
vn 0.7759 0.4873 -0.4005
vn 0.8869 0.2140 0.4094
vn -0.0542 -0.1378 -0.9890
vn 0.9926 0.1041 0.0629
vn 0.2154 0.5756 -0.7888
vn 0.9145 0.1301 -0.3832
vn 0.8279 -0.1914 -0.5273
vn 0.9796 -0.1844 -0.0798
vn 0.9852 -0.0592 0.1610
vn 0.9966 -0.0189 0.0798
vn -0.3854 0.4938 -0.7795
vn -0.1320 0.6285 -0.7665
vn 0.8767 0.2900 -0.3838
vn 0.9785 0.1951 0.0665
vn -0.9158 0.3946 -0.0745
vn -0.9143 0.4041 -0.0284
vn 0.5582 0.8295 0.0173
vn -0.8431 0.5274 -0.1048
vn 0.4119 0.8363 -0.3618
vn 0.1558 0.5772 -0.8016
vn -0.3394 0.2001 -0.9191
vn -0.1535 -0.0105 -0.9881
vn -0.1357 0.3734 -0.9177
vn -0.5147 0.1703 -0.8403
vn 0.0396 0.2071 -0.9775
vn 0.2831 0.2398 -0.9286
vn -0.5572 -0.0368 -0.8295
vn -0.1189 0.0932 -0.9885
vn 0.2424 0.4992 -0.8319
vn -0.5573 -0.0353 -0.8295
vn -0.5065 -0.1472 -0.8496
vn -0.0216 0.2612 -0.9650
vn -0.0799 -0.0993 -0.9918
vn 0.0132 -0.0104 -0.9999
vn 0.1614 -0.0043 -0.9869
vn 0.0839 -0.0396 -0.9957
vn -0.1269 0.5171 0.8464
vn 0.6915 0.4501 0.5650
vn 0.4260 0.4314 0.7952
vn -0.5469 0.7078 0.4472
vn 0.4382 0.0296 0.8984
vn 0.5417 -0.1082 0.8336
vn 0.0140 0.0671 0.9976
vn 0.0816 -0.0840 0.9931
vn -0.1880 0.1167 0.9752
vn -0.0976 0.0315 0.9947
vn 0.2686 0.9511 0.1523
vn -0.8618 0.4889 0.1350
vn 0.4480 0.3522 0.8218
vn -0.2601 0.2433 0.9344
vn -0.7995 0.4084 0.4404
vn -0.3765 0.8225 0.4262
vn -0.1948 0.3516 -0.9156
vn -0.5937 0.6969 0.4023
vn -0.7052 0.4513 -0.5468
vn 0.3434 0.2690 -0.8998
vn 0.5130 0.2847 -0.8098
vn -0.1251 0.8321 0.5403
vn -0.6546 0.2306 0.7200
vn -0.4427 0.1533 0.8835
vn -0.4683 0.0391 0.8827
vn -0.6306 0.0777 0.7722
vn -0.1109 0.6956 0.7098
vn 0.7793 0.0535 0.6244
vn 0.7608 0.1182 0.6382
vn 0.9072 0.3712 0.1981
vn 0.9421 0.3224 -0.0921
vn 0.6665 0.0960 -0.7393
vn 0.3941 0.5035 -0.7688
vn -0.7597 0.0571 -0.6478
vn -0.9815 0.0932 -0.1676
vn -0.9364 0.2893 -0.1989
vn -0.8156 0.4583 0.3533
vn -0.9525 0.3036 0.0246
vn -0.9625 0.2698 0.0277
vn -0.8430 0.0625 0.5342
vn -0.9486 0.1351 0.2864
vn -0.9203 0.1273 -0.3699
vn -0.9183 0.0801 0.3878
vn -0.9596 0.2807 0.0181
vn -0.9927 0.0769 -0.0924
vn 0.9710 0.1860 0.1504
vn 0.7288 0.4271 -0.5352
vn 0.9142 -0.0690 -0.3993
vn 0.6998 -0.1324 -0.7019
vn 0.9852 -0.0975 0.1406
vn 0.9148 0.1271 -0.3834
vn 0.9889 0.1486 0.0015
vn 0.9919 0.1272 0.0016
vn 0.9691 0.0261 -0.2452
vn 0.9765 0.1474 0.1575
vn -0.0328 0.8008 -0.5981
vn -0.2396 0.9049 -0.3517
vn 0.8422 0.2850 -0.4577
vn 0.9798 0.1914 0.0579
vn -0.8074 0.5310 0.2571
vn -0.0879 0.9959 0.0195
vn -0.7608 0.6107 -0.2196
vn 0.1909 0.9558 0.2237
vn -0.7820 0.5798 -0.2285
vn 0.1307 0.5983 -0.7905
vn -0.3744 0.2004 -0.9053
vn 0.0834 0.6121 -0.7864
vn -0.6343 0.3973 -0.6632
vn -0.6204 0.4666 -0.6304
vn -0.4370 0.1985 -0.8773
vn -0.4703 0.1983 -0.8599
vn -0.9841 0.0411 -0.1725
vn -0.0792 0.1327 -0.9880
vn -0.3792 0.0834 -0.9215
vn -0.3016 0.2875 -0.9090
vn -0.3258 0.0773 -0.9423
vn -0.1231 -0.0400 -0.9916
vn -0.0206 0.1611 -0.9867
vn -0.2720 -0.1408 -0.9519
vn 0.1612 0.1126 -0.9805
vn 0.2885 0.4303 0.8553
vn 0.8773 0.1513 0.4554
vn 0.3062 0.0112 0.9519
vn -0.3514 0.2281 0.9080
vn -0.2239 0.2348 0.9459
vn 0.8015 0.0366 0.5968
vn 0.4528 -0.0045 0.8916
vn 0.4462 0.0151 0.8948
vn -0.1521 0.0048 0.9883
vn 0.0152 0.1953 0.9806
vn -0.1870 0.1169 0.9754
vn -0.1878 0.2048 0.9606
vn 0.0826 0.9891 0.1216
vn -0.8741 0.4767 0.0933
vn 0.5099 0.2845 0.8118
vn 0.4538 0.3554 0.8172
vn -0.5829 0.8084 0.0824
vn -0.1994 0.9760 -0.0873
vn -0.0067 -1.0000 0.0052
vn 0.0618 -0.9981 -0.0004
vn 0.0368 -0.9993 -0.0026
vn 0.0061 -0.9999 -0.0130
vn -0.0024 -0.9998 -0.0181
vn 0.0072 -1.0000 -0.0003
vn 0.0146 -0.9997 -0.0215
vn 0.0050 -1.0000 -0.0055
vn -0.0187 -0.9998 0.0121
vn 0.0225 -0.9994 0.0262
vn 0.0012 -0.9999 0.0138
vn -0.0020 -0.9986 0.0532
vn 0.0105 -0.9998 0.0152
vn 0.0199 -0.9998 0.0064
g Cube_Cube_snow
usemtl snow
s off
f 54/1/1 85/2/1 27/3/1
f 79/4/2 11/5/2 1/6/2
f 20/7/3 93/8/3 78/9/3
f 26/10/4 53/11/4 73/12/4
f 2/13/5 82/14/5 73/12/5
f 3/15/6 4/16/6 17/17/6
f 3/15/7 48/18/7 70/19/7
f 38/20/8 53/11/8 5/21/8
f 6/22/9 65/23/9 7/24/9
f 7/24/10 41/25/10 6/22/10
f 6/22/11 51/26/11 58/27/11
f 65/23/12 8/28/12 7/24/12
f 9/29/13 75/30/13 10/31/13
f 10/31/14 22/32/14 9/29/14
f 9/29/15 50/33/15 66/34/15
f 75/30/16 11/5/16 10/31/16
f 12/35/17 55/36/17 63/37/17
f 12/35/18 49/38/18 55/36/18
f 12/35/19 63/37/19 13/39/19
f 13/39/20 30/40/20 52/41/20
f 13/39/21 52/41/21 12/35/21
f 15/42/22 54/1/22 13/39/22
f 13/39/23 54/1/23 30/40/23
f 14/43/24 53/11/24 61/44/24
f 61/44/25 15/42/25 14/43/25
f 4/16/26 14/43/26 17/17/26
f 17/17/27 14/43/27 62/45/27
f 63/37/28 84/46/28 16/47/28
f 17/17/29 57/48/29 48/18/29
f 16/47/30 84/46/30 62/45/30
f 62/45/31 56/49/31 57/48/31
f 84/46/32 55/36/32 56/49/32
f 18/50/33 20/7/33 19/51/33
f 8/28/34 83/52/34 20/7/34
f 21/53/35 80/54/35 18/50/35
f 18/50/36 64/55/36 21/53/36
f 23/56/37 64/55/37 19/51/37
f 19/51/38 83/52/38 23/56/38
f 65/23/39 83/52/39 8/28/39
f 22/32/40 64/55/40 23/56/40
f 22/32/41 60/57/41 50/33/41
f 23/56/42 59/58/42 60/57/42
f 24/59/43 65/23/43 6/22/43
f 24/59/44 58/27/44 59/58/44
f 82/14/45 90/60/45 25/61/45
f 25/61/46 27/3/46 82/14/46
f 79/4/47 28/62/47 18/50/47
f 28/62/48 20/7/48 18/50/48
f 82/14/49 27/3/49 26/10/49
f 26/10/50 85/2/50 61/44/50
f 28/62/51 92/63/51 93/8/51
f 44/64/52 90/60/52 2/13/52
f 79/4/53 1/6/53 29/65/53
f 29/65/54 28/62/54 79/4/54
f 69/66/55 25/61/55 29/65/55
f 54/1/56 88/67/56 30/40/56
f 30/40/57 87/68/57 31/69/57
f 88/67/58 89/70/58 32/71/58
f 32/71/59 89/70/59 33/72/59
f 33/72/60 89/70/60 11/5/60
f 34/73/61 52/41/61 31/69/61
f 31/69/62 74/74/62 34/73/62
f 33/72/63 11/5/63 75/30/63
f 34/73/64 49/38/64 52/41/64
f 34/73/65 68/75/65 49/38/65
f 74/74/66 36/76/66 35/77/66
f 35/77/67 67/78/67 68/75/67
f 36/76/68 32/71/68 33/72/68
f 33/72/69 9/29/69 36/76/69
f 36/76/70 66/34/70 67/78/70
f 39/79/71 81/80/71 78/9/71
f 78/9/72 77/81/72 39/79/72
f 86/82/73 77/81/73 37/83/73
f 37/83/74 46/84/74 38/20/74
f 40/85/75 37/83/75 38/20/75
f 41/25/76 72/86/76 51/26/76
f 42/87/77 76/88/77 43/89/77
f 42/87/78 71/90/78 72/86/78
f 43/89/79 40/85/79 3/15/79
f 43/89/80 70/19/80 71/90/80
f 45/91/81 93/8/81 91/92/81
f 2/13/82 73/12/82 44/64/82
f 37/83/83 77/81/83 45/91/83
f 46/84/84 37/83/84 45/91/84
f 45/91/85 73/12/85 46/84/85
f 47/93/86 54/1/86 25/61/86
f 47/93/87 88/67/87 54/1/87
f 47/93/88 25/61/88 69/66/88
f 47/93/89 89/70/89 88/67/89
f 1/6/90 11/5/90 89/70/90
f 79/4/91 80/54/91 11/5/91
f 73/12/92 53/11/92 46/84/92
f 3/15/93 17/17/93 48/18/93
f 4/16/94 3/15/94 40/85/94
f 40/85/95 38/20/95 4/16/95
f 5/21/96 4/16/96 38/20/96
f 38/20/97 46/84/97 53/11/97
f 6/22/98 41/25/98 51/26/98
f 8/28/99 81/80/99 7/24/99
f 8/28/100 20/7/100 78/9/100
f 8/28/101 78/9/101 81/80/101
f 9/29/102 22/32/102 50/33/102
f 11/5/103 80/54/103 10/31/103
f 12/35/104 52/41/104 49/38/104
f 63/37/105 15/42/105 13/39/105
f 15/42/106 85/2/106 54/1/106
f 14/43/107 5/21/107 53/11/107
f 61/44/108 85/2/108 15/42/108
f 14/43/109 15/42/109 16/47/109
f 4/16/110 5/21/110 14/43/110
f 16/47/111 62/45/111 14/43/111
f 16/47/112 15/42/112 63/37/112
f 17/17/113 62/45/113 57/48/113
f 62/45/114 84/46/114 56/49/114
f 84/46/115 63/37/115 55/36/115
f 19/51/116 20/7/116 83/52/116
f 21/53/117 10/31/117 80/54/117
f 18/50/118 19/51/118 64/55/118
f 22/32/119 10/31/119 21/53/119
f 22/32/120 21/53/120 64/55/120
f 22/32/121 23/56/121 60/57/121
f 23/56/122 83/52/122 24/59/122
f 23/56/123 24/59/123 59/58/123
f 24/59/124 83/52/124 65/23/124
f 24/59/125 6/22/125 58/27/125
f 25/61/126 54/1/126 27/3/126
f 2/13/127 90/60/127 82/14/127
f 18/50/128 80/54/128 79/4/128
f 20/7/129 28/62/129 93/8/129
f 61/44/130 53/11/130 26/10/130
f 73/12/131 82/14/131 26/10/131
f 26/10/132 27/3/132 85/2/132
f 91/92/133 93/8/133 92/63/133
f 44/64/134 91/92/134 90/60/134
f 29/65/135 92/63/135 28/62/135
f 29/65/136 1/6/136 69/66/136
f 91/92/137 92/63/137 29/65/137
f 29/65/138 25/61/138 90/60/138
f 90/60/139 91/92/139 29/65/139
f 30/40/140 88/67/140 87/68/140
f 32/71/141 87/68/141 88/67/141
f 31/69/142 52/41/142 30/40/142
f 31/69/143 87/68/143 74/74/143
f 32/71/144 74/74/144 87/68/144
f 34/73/145 74/74/145 35/77/145
f 34/73/146 35/77/146 68/75/146
f 74/74/147 32/71/147 36/76/147
f 35/77/148 36/76/148 67/78/148
f 33/72/149 75/30/149 9/29/149
f 36/76/150 9/29/150 66/34/150
f 39/79/151 77/81/151 86/82/151
f 39/79/152 7/24/152 81/80/152
f 39/79/153 86/82/153 42/87/153
f 86/82/154 37/83/154 76/88/154
f 40/85/155 76/88/155 37/83/155
f 41/25/156 7/24/156 39/79/156
f 41/25/157 39/79/157 42/87/157
f 41/25/158 42/87/158 72/86/158
f 42/87/159 86/82/159 76/88/159
f 42/87/160 43/89/160 71/90/160
f 43/89/161 76/88/161 40/85/161
f 43/89/162 3/15/162 70/19/162
f 45/91/163 91/92/163 44/64/163
f 44/64/164 73/12/164 45/91/164
f 78/9/165 93/8/165 77/81/165
f 45/91/166 77/81/166 93/8/166
f 47/93/167 69/66/167 89/70/167
f 89/70/168 69/66/168 1/6/168
f 59/58/169 71/90/169 67/78/169
f 48/18/170 57/48/170 56/49/170
f 56/49/171 55/36/171 49/38/171
f 49/38/172 68/75/172 56/49/172
f 68/75/173 67/78/173 56/49/173
f 67/78/174 66/34/174 50/33/174
f 50/33/175 60/57/175 67/78/175
f 60/57/176 59/58/176 67/78/176
f 59/58/177 58/27/177 51/26/177
f 51/26/178 72/86/178 59/58/178
f 72/86/179 71/90/179 59/58/179
f 71/90/180 70/19/180 48/18/180
f 48/18/181 56/49/181 71/90/181
f 67/78/182 71/90/182 56/49/182
