# Blender v2.79 (sub 0) OBJ File: 'small_rock.blend'
# www.blender.org
mtllib big_rock_dirt.mtl
o Cube
v 0.170716 1.223822 -0.197129
v -0.073449 0.924397 0.058947
v -0.264760 0.085155 0.438544
v -0.343590 0.422085 0.408683
v -0.315453 0.682001 0.288927
v 0.451350 0.079438 0.253891
v 0.416520 0.675522 0.324693
v 0.415389 0.745830 0.225052
v 0.264873 0.077567 -0.452041
v 0.369701 0.670690 -0.379376
v 0.295515 0.748290 -0.364922
v -0.423281 0.066512 -0.298592
v -0.408654 0.302467 -0.290228
v -0.382589 0.509577 0.229753
v -0.402163 0.332494 -0.150049
v -0.448901 0.275519 -0.024393
v -0.425822 0.072623 0.296132
v 0.394804 0.841963 -0.247245
v 0.417722 0.740382 -0.191633
v 0.398201 1.056268 0.035617
v 0.389764 0.200463 -0.285022
v 0.413127 0.083224 -0.317640
v 0.474001 0.077341 -0.174349
v 0.473441 0.078049 0.118223
v -0.077982 0.812389 -0.135939
v -0.246511 0.777227 0.180121
v -0.190957 0.789388 -0.068208
v 0.226670 1.323273 -0.021431
v 0.029480 1.263788 -0.096992
v -0.349538 0.414046 -0.330567
v -0.339912 0.229886 -0.383423
v 0.019499 0.696654 -0.452274
v 0.106934 0.685917 -0.451210
v -0.268665 0.079151 -0.438818
v -0.182887 0.074055 -0.468891
v 0.126894 0.078592 -0.474606
v 0.047541 1.125518 0.289909
v -0.213917 0.463516 0.425087
v 0.312908 0.736658 0.395588
v -0.220588 0.382937 0.466371
v 0.323682 0.094024 0.408691
v 0.212845 0.086239 0.464747
v -0.104080 0.089870 0.468950
v -0.004626 1.119560 0.089192
v -0.002179 0.873080 0.151156
v -0.112768 0.753169 0.251950
v -0.103221 0.734316 -0.239853
v -0.364763 0.007266 0.366398
v -0.362670 0.005501 -0.373348
v 0.373200 0.009774 -0.360669
v 0.359625 0.013347 0.372380
v -0.350017 0.073273 -0.383911
v -0.283428 0.747614 0.244451
v -0.260916 0.647018 -0.285926
v -0.464704 0.001341 -0.220442
v -0.481720 0.000186 -0.019885
v -0.460142 0.001420 0.225592
v 0.464282 0.009565 0.221036
v 0.480254 0.006852 0.020796
v 0.460657 0.008081 -0.222748
v -0.273885 0.745284 0.176402
v -0.466329 0.057713 0.203295
v -0.461618 0.058700 -0.221931
v 0.422750 0.184999 -0.207955
v 0.416410 0.198891 0.205476
v 0.224461 0.008734 -0.464374
v 0.026426 0.007310 -0.481000
v -0.215341 0.007542 -0.461547
v 0.007081 1.244553 -0.137398
v -0.213365 0.011960 0.460086
v -0.018637 0.012594 0.479172
v 0.226094 0.012609 0.459059
v -0.083781 0.854775 0.179024
v -0.168011 0.136605 -0.441895
v 0.230195 0.184512 -0.420040
v 0.024525 0.178218 0.433279
v 0.144193 1.094005 0.310870
v 0.280545 1.186308 0.180113
v 0.247548 1.210358 -0.133821
v 0.352729 0.850247 -0.320236
v 0.385626 0.795458 0.312073
v -0.152678 0.864505 0.004277
v 0.437607 0.164131 0.002110
v -0.471741 0.059571 -0.112459
v -0.261820 0.675043 -0.113468
v 0.231436 0.734478 0.421801
v -0.187117 0.249115 -0.389151
v -0.129310 0.659941 -0.305403
v 0.015719 1.102891 -0.267344
v -0.088110 1.201347 -0.022124
v 0.083843 1.325043 0.008372
v 0.144479 1.414727 0.005231
v 0.188302 1.371025 0.095176
vt 0.340442 0.660639
vt 0.304158 0.572453
vt 0.368707 0.551256
vt 0.599578 0.593650
vt 0.696725 0.766738
vt 0.580345 0.611333
vt 0.686810 0.460839
vt 0.589858 0.423639
vt 0.631238 0.376848
vt 0.364078 0.390135
vt 0.347798 0.332989
vt 0.447373 0.365765
vt 0.430375 0.433315
vt 0.395537 0.494213
vt 0.246740 0.082123
vt 0.280380 0.203897
vt 0.105828 0.200825
vt 0.124362 0.144361
vt 0.262882 0.037155
vt 0.370894 0.226527
vt 0.311000 0.286881
vt 0.931721 0.257054
vt 0.875726 0.317860
vt 0.826303 0.226534
vt 0.810317 0.107700
vt 0.850896 0.119802
vt 0.963111 0.263355
vt 0.777040 0.338140
vt 0.752049 0.931513
vt 0.703414 0.885806
vt 0.795615 0.817119
vt 0.897026 0.805123
vt 0.879371 0.851756
vt 0.736682 0.963090
vt 0.094320 0.792712
vt 0.036471 0.735903
vt 0.054836 0.716881
vt 0.146247 0.877450
vt 0.239451 0.692289
vt 0.295068 0.714144
vt 0.149733 0.853093
vt 0.240612 0.608006
vt 0.259609 0.340754
vt 0.319388 0.368793
vt 0.053482 0.293502
vt 0.044184 0.612941
vt 0.181057 0.522512
vt 0.030076 0.283166
vt 0.016964 0.527177
vt 0.762982 0.691773
vt 0.791071 0.642537
vt 0.884028 0.471192
vt 0.852895 0.755958
vt 0.733584 0.731234
vt 0.886542 0.688737
vt 0.949053 0.679358
vt 0.970249 0.714451
vt 0.983036 0.471055
vt 0.958180 0.385788
vt 0.442462 0.517159
vt 0.437535 0.601933
vt 0.604501 0.510183
vt 0.556599 0.499735
vt 0.495931 0.426792
vt 0.524081 0.587794
vt 0.510563 0.622912
vt 0.418623 0.701691
vt 0.363420 0.794509
vt 0.287597 0.801774
vt 0.506386 0.696397
vt 0.499141 0.817406
vt 0.584418 0.812110
vt 0.215688 0.905242
vt 0.333822 0.914408
vt 0.286973 0.970443
vt 0.615577 0.957493
vt 0.320610 0.948732
vt 0.528813 0.983036
vt 0.725753 0.209881
vt 0.724147 0.284946
vt 0.615253 0.278803
vt 0.670135 0.188037
vt 0.514609 0.279241
vt 0.431656 0.307911
vt 0.340239 0.149169
vt 0.713321 0.029597
vt 0.710172 0.055496
vt 0.529440 0.100746
vt 0.399452 0.046393
vt 0.469132 0.016964
vt 0.502496 0.374272
vt 0.519574 0.498502
vt 0.434703 0.655460
vn -0.8292 0.5510 -0.0939
vn 0.6235 0.4005 -0.6715
vn 0.8309 0.5135 0.2144
vn -0.4232 0.8905 0.1670
vn -0.7005 0.6419 0.3119
vn -0.6561 -0.0871 0.7497
vn -0.5200 -0.1161 0.8462
vn 0.0480 0.5443 0.8375
vn 0.9084 0.1013 -0.4057
vn 0.7697 -0.0308 0.6377
vn 0.8156 -0.1156 0.5669
vn 0.9999 0.0022 -0.0098
vn -0.3277 0.1717 -0.9290
vn 0.6720 -0.0281 -0.7400
vn 0.5628 -0.1861 -0.8054
vn -0.0818 0.1064 -0.9910
vn -0.8953 0.0367 -0.4440
vn -0.8219 -0.1398 -0.5522
vn -0.8950 0.0711 -0.4403
vn -0.6957 0.1121 -0.7096
vn -0.7595 0.0700 -0.6467
vn -0.9181 0.3942 -0.0419
vn -0.8910 0.3850 -0.2407
vn -0.9108 0.3881 -0.1410
vn -0.9110 0.3897 -0.1347
vn -0.9521 0.1358 0.2739
vn -0.9150 0.1476 0.3755
vn -0.9856 0.1419 -0.0923
vn -0.8141 -0.1605 0.5581
vn -0.9950 0.0980 0.0176
vn -0.9934 -0.0744 0.0877
vn -0.9958 0.0360 -0.0843
vn 0.9803 0.1518 -0.1268
vn 0.9988 0.0448 -0.0173
vn 0.8672 0.0225 -0.4974
vn 0.9204 0.0158 -0.3908
vn 0.5901 0.0291 -0.8068
vn 0.9833 0.0876 0.1597
vn 0.9946 -0.0019 0.1040
vn 0.8806 0.3064 -0.3615
vn 0.8351 -0.1427 -0.5313
vn 0.9877 -0.1343 -0.0802
vn 0.9314 0.3325 0.1483
vn 0.9967 -0.0137 0.0797
vn -0.8557 0.1247 -0.5022
vn -0.4557 0.7274 -0.5131
vn 0.8627 0.4278 -0.2696
vn 0.8199 0.4515 -0.3519
vn -0.8122 0.5626 -0.1541
vn -0.7348 0.6516 -0.1885
vn 0.7386 0.6733 -0.0327
vn -0.7321 0.1554 0.6632
vn 0.2265 0.9716 -0.0683
vn 0.0552 0.7095 -0.7026
vn -0.8941 0.1774 0.4112
vn -0.1655 0.2460 -0.9550
vn -0.0702 0.2718 -0.9598
vn -0.7078 0.2872 -0.6454
vn 0.0619 0.4140 -0.9082
vn 0.2512 0.4360 -0.8642
vn -0.5609 0.0388 -0.8270
vn -0.1794 0.2635 -0.9478
vn 0.4040 0.0425 -0.9138
vn -0.5580 -0.0251 -0.8295
vn -0.5095 -0.1085 -0.8536
vn -0.0228 0.4007 -0.9159
vn -0.0801 -0.0707 -0.9943
vn 0.0170 0.0390 -0.9991
vn 0.1616 0.0433 -0.9859
vn 0.0838 -0.0288 -0.9961
vn 0.5362 0.3959 0.7455
vn 0.4726 0.4083 0.7810
vn -0.1208 0.2658 0.9564
vn -0.9172 0.3840 0.1066
vn -0.6471 0.3894 0.6555
vn 0.5401 -0.1333 0.8309
vn 0.0165 0.3537 0.9352
vn 0.0818 -0.0621 0.9947
vn -0.1837 -0.0644 0.9809
vn -0.0976 0.0237 0.9949
vn -0.6850 0.3348 0.6470
vn -0.9430 0.3167 0.1025
vn 0.3185 0.4077 -0.8558
vn -0.8148 0.3941 -0.4251
vn 0.1587 0.5454 0.8230
vn -0.2870 0.7980 -0.5299
vn -0.1720 0.6846 -0.7083
vn -0.9769 0.1926 0.0926
vn -0.9507 0.3089 0.0279
vn 0.1361 0.3612 -0.9225
vn -0.0832 0.4388 -0.8947
vn -0.0546 0.5925 0.8037
vn -0.6602 0.1699 0.7317
vn -0.4299 -0.0206 0.9026
vn -0.2540 0.4576 0.8521
vn -0.2466 0.4274 0.8698
vn -0.0544 0.5262 0.8486
vn 0.7729 0.0600 0.6317
vn 0.9489 0.2628 0.1747
vn 0.8542 0.3045 0.4215
vn 0.9412 0.3033 0.1489
vn 0.6685 0.0703 -0.7404
vn 0.1551 0.3222 -0.9339
vn -0.7596 0.0407 -0.6491
vn -0.9772 0.2123 -0.0002
vn -0.9207 0.3844 -0.0673
vn -0.9175 0.3877 -0.0887
vn -0.9122 0.3878 -0.1320
vn -0.8985 0.4137 -0.1466
vn -0.9148 0.2464 0.3199
vn -0.9799 0.1761 0.0935
vn -0.9371 0.2636 -0.2290
vn -0.9184 0.0543 0.3920
vn -0.9811 0.1928 0.0180
vn -0.9944 0.0511 -0.0924
vn 0.9987 0.0431 0.0258
vn 0.9933 0.0619 0.0972
vn 0.9360 0.0188 -0.3514
vn 0.9455 0.1024 0.3092
vn 0.9031 0.2723 -0.3319
vn 0.9178 0.0930 -0.3861
vn 0.9228 0.3853 0.0008
vn 0.9957 0.0930 0.0017
vn 0.9108 0.4122 0.0245
vn 0.9815 0.1070 0.1587
vn -0.4087 0.8184 -0.4038
vn -0.6480 0.1822 0.7395
vn 0.7970 0.4445 -0.4090
vn 0.8353 0.5474 0.0507
vn -0.7458 0.6539 -0.1270
vn -0.4190 0.8823 0.2143
vn -0.8114 0.5638 -0.1539
vn -0.6764 0.4770 0.5613
vn -0.4828 0.4926 0.7240
vn 0.2034 0.4381 -0.8756
vn -0.0356 0.9099 -0.4134
vn -0.8227 0.5597 0.0991
vn -0.6020 0.2098 -0.7705
vn -0.5513 0.8128 -0.1881
vn -0.1301 0.2156 -0.9678
vn -0.7115 0.2351 -0.6622
vn -0.9231 0.0607 -0.3798
vn -0.0857 0.4109 -0.9076
vn -0.6786 0.2142 -0.7026
vn -0.2747 0.4353 -0.8573
vn -0.3274 0.0556 -0.9433
vn -0.1069 0.0174 -0.9941
vn -0.0200 0.1173 -0.9929
vn 0.9473 0.2457 0.2056
vn 0.1615 0.0814 -0.9835
vn 0.2792 0.3443 0.8964
vn 0.6411 0.2418 0.7284
vn 0.3045 0.0543 0.9510
vn -0.3480 0.1485 0.9256
vn 0.2458 0.1392 0.9593
vn 0.5750 0.0263 0.8177
vn 0.4497 0.0257 0.8928
vn 0.4506 0.0121 0.8926
vn -0.1314 0.0693 0.9889
vn 0.0148 0.1472 0.9890
vn 0.2076 0.0911 0.9740
vn -0.1881 0.1534 0.9701
vn 0.2981 0.2355 0.9250
vn 0.2658 0.2375 0.9343
vn 0.3684 0.5339 0.7611
vn -0.8808 0.3701 0.2952
vn -0.8995 0.2643 -0.3479
vn -0.1830 0.6585 -0.7300
vn 0.0071 -1.0000 0.0044
usemtl stone_rock
s off
f 54/1/1 85/2/1 27/3/1
f 79/4/2 11/5/2 1/6/2
f 20/7/3 93/8/3 78/9/3
f 26/10/4 53/11/4 73/12/4
f 2/13/5 82/14/5 73/12/5
f 3/15/6 4/16/6 17/17/6
f 3/15/7 48/18/7 70/19/7
f 38/20/8 53/11/8 5/21/8
f 6/22/9 65/23/9 7/24/9
f 7/24/10 41/25/10 6/22/10
f 6/22/11 51/26/11 58/27/11
f 65/23/12 8/28/12 7/24/12
f 9/29/13 75/30/13 10/31/13
f 10/31/14 22/32/14 9/29/14
f 9/29/15 50/33/15 66/34/15
f 75/30/16 11/5/16 10/31/16
f 12/35/17 55/36/17 63/37/17
f 12/35/18 49/38/18 55/36/18
f 12/35/19 63/37/19 13/39/19
f 13/39/20 30/40/20 52/41/20
f 13/39/21 52/41/21 12/35/21
f 15/42/22 54/1/22 13/39/22
f 13/39/23 54/1/23 30/40/23
f 14/43/24 53/11/24 61/44/24
f 61/44/25 15/42/25 14/43/25
f 4/16/26 14/43/26 17/17/26
f 17/17/27 14/43/27 62/45/27
f 63/37/28 84/46/28 16/47/28
f 17/17/29 57/48/29 48/18/29
f 16/47/30 84/46/30 62/45/30
f 62/45/31 56/49/31 57/48/31
f 84/46/32 55/36/32 56/49/32
f 18/50/33 20/7/33 19/51/33
f 8/28/34 83/52/34 20/7/34
f 21/53/35 80/54/35 18/50/35
f 18/50/36 64/55/36 21/53/36
f 23/56/37 64/55/37 19/51/37
f 19/51/38 83/52/38 23/56/38
f 65/23/39 83/52/39 8/28/39
f 22/32/40 64/55/40 23/56/40
f 22/32/41 60/57/41 50/33/41
f 23/56/42 59/58/42 60/57/42
f 24/59/43 65/23/43 6/22/43
f 24/59/44 58/27/44 59/58/44
f 82/14/45 90/60/45 25/61/45
f 25/61/46 27/3/46 82/14/46
f 79/4/47 28/62/47 18/50/47
f 28/62/48 20/7/48 18/50/48
f 82/14/49 27/3/49 26/10/49
f 26/10/50 85/2/50 61/44/50
f 28/62/51 92/63/51 93/8/51
f 44/64/52 90/60/52 2/13/52
f 79/4/53 1/6/53 29/65/53
f 29/65/54 28/62/54 79/4/54
f 69/66/55 25/61/55 29/65/55
f 54/1/56 88/67/56 30/40/56
f 30/40/57 87/68/57 31/69/57
f 88/67/58 89/70/58 32/71/58
f 32/71/59 89/70/59 33/72/59
f 33/72/60 89/70/60 11/5/60
f 34/73/61 52/41/61 31/69/61
f 31/69/62 74/74/62 34/73/62
f 33/72/63 11/5/63 75/30/63
f 34/73/64 49/38/64 52/41/64
f 34/73/65 68/75/65 49/38/65
f 74/74/66 36/76/66 35/77/66
f 35/77/67 67/78/67 68/75/67
f 36/76/68 32/71/68 33/72/68
f 33/72/69 9/29/69 36/76/69
f 36/76/70 66/34/70 67/78/70
f 39/79/71 81/80/71 78/9/71
f 78/9/72 77/81/72 39/79/72
f 86/82/73 77/81/73 37/83/73
f 37/83/74 46/84/74 38/20/74
f 40/85/75 37/83/75 38/20/75
f 41/25/76 72/86/76 51/26/76
f 42/87/77 76/88/77 43/89/77
f 42/87/78 71/90/78 72/86/78
f 43/89/79 40/85/79 3/15/79
f 43/89/80 70/19/80 71/90/80
f 45/91/81 93/8/81 91/92/81
f 2/13/82 73/12/82 44/64/82
f 37/83/83 77/81/83 45/91/83
f 46/84/84 37/83/84 45/91/84
f 45/91/85 73/12/85 46/84/85
f 47/93/86 54/1/86 25/61/86
f 47/93/87 88/67/87 54/1/87
f 47/93/88 25/61/88 69/66/88
f 47/93/89 89/70/89 88/67/89
f 1/6/90 11/5/90 89/70/90
f 79/4/91 80/54/91 11/5/91
f 73/12/92 53/11/92 46/84/92
f 3/15/93 17/17/93 48/18/93
f 4/16/94 3/15/94 40/85/94
f 40/85/95 38/20/95 4/16/95
f 5/21/96 4/16/96 38/20/96
f 38/20/97 46/84/97 53/11/97
f 6/22/98 41/25/98 51/26/98
f 8/28/99 81/80/99 7/24/99
f 8/28/100 20/7/100 78/9/100
f 8/28/101 78/9/101 81/80/101
f 9/29/102 22/32/102 50/33/102
f 11/5/103 80/54/103 10/31/103
f 12/35/104 52/41/104 49/38/104
f 63/37/105 15/42/105 13/39/105
f 15/42/106 85/2/106 54/1/106
f 14/43/107 5/21/107 53/11/107
f 61/44/108 85/2/108 15/42/108
f 14/43/109 15/42/109 16/47/109
f 4/16/110 5/21/110 14/43/110
f 16/47/111 62/45/111 14/43/111
f 16/47/112 15/42/112 63/37/112
f 17/17/113 62/45/113 57/48/113
f 62/45/114 84/46/114 56/49/114
f 84/46/115 63/37/115 55/36/115
f 19/51/116 20/7/116 83/52/116
f 21/53/117 10/31/117 80/54/117
f 18/50/118 19/51/118 64/55/118
f 22/32/119 10/31/119 21/53/119
f 22/32/120 21/53/120 64/55/120
f 22/32/121 23/56/121 60/57/121
f 23/56/122 83/52/122 24/59/122
f 23/56/123 24/59/123 59/58/123
f 24/59/124 83/52/124 65/23/124
f 24/59/125 6/22/125 58/27/125
f 25/61/126 54/1/126 27/3/126
f 2/13/127 90/60/127 82/14/127
f 18/50/128 80/54/128 79/4/128
f 20/7/129 28/62/129 93/8/129
f 61/44/130 53/11/130 26/10/130
f 73/12/131 82/14/131 26/10/131
f 26/10/132 27/3/132 85/2/132
f 91/92/133 93/8/133 92/63/133
f 44/64/134 91/92/134 90/60/134
f 29/65/135 92/63/135 28/62/135
f 29/65/136 1/6/136 69/66/136
f 91/92/137 92/63/137 29/65/137
f 29/65/138 25/61/138 90/60/138
f 90/60/139 91/92/139 29/65/139
f 30/40/140 88/67/140 87/68/140
f 32/71/141 87/68/141 88/67/141
f 31/69/142 52/41/142 30/40/142
f 31/69/143 87/68/143 74/74/143
f 32/71/144 74/74/144 87/68/144
f 34/73/145 74/74/145 35/77/145
f 34/73/146 35/77/146 68/75/146
f 74/74/147 32/71/147 36/76/147
f 35/77/148 36/76/148 67/78/148
f 33/72/149 75/30/149 9/29/149
f 36/76/150 9/29/150 66/34/150
f 39/79/151 77/81/151 86/82/151
f 39/79/152 7/24/152 81/80/152
f 39/79/153 86/82/153 42/87/153
f 86/82/154 37/83/154 76/88/154
f 40/85/155 76/88/155 37/83/155
f 41/25/156 7/24/156 39/79/156
f 41/25/157 39/79/157 42/87/157
f 41/25/158 42/87/158 72/86/158
f 42/87/159 86/82/159 76/88/159
f 42/87/160 43/89/160 71/90/160
f 43/89/161 76/88/161 40/85/161
f 43/89/162 3/15/162 70/19/162
f 45/91/163 91/92/163 44/64/163
f 44/64/164 73/12/164 45/91/164
f 78/9/165 93/8/165 77/81/165
f 45/91/166 77/81/166 93/8/166
f 47/93/167 69/66/167 89/70/167
f 89/70/168 69/66/168 1/6/168
f 57/48/169 56/49/169 55/36/169 49/38/169 68/75/169 67/78/169 66/34/169 50/33/169 60/57/169 59/58/169 58/27/169 51/26/169 72/86/169 71/90/169 70/19/169 48/18/169
